<?xml version="1.0" standalone="no"?>
<!DOCTYPE svg PUBLIC "-//W3C//DTD SVG 20010904//EN"
 "http://www.w3.org/TR/2001/REC-SVG-20010904/DTD/svg10.dtd">
<svg version="1.0" xmlns="http://www.w3.org/2000/svg"
 width="256.000000pt" height="256.000000pt" viewBox="0 0 256.000000 256.000000"
 preserveAspectRatio="xMidYMid meet">
<metadata>
Created by potrace 1.14, written by Peter Selinger 2001-2017
</metadata>
<g transform="translate(0.000000,256.000000) scale(0.100000,-0.100000)"
fill="#000000" stroke="none">
<path d="M597 2358 c-277 -76 -483 -340 -568 -729 -19 -84 -23 -135 -23 -269
-1 -146 8 -272 19 -290 2 -4 7 -22 10 -41 3 -19 19 -74 36 -123 143 -428 462
-662 788 -578 74 19 75 19 95 0 106 -100 288 -157 466 -145 507 36 1025 510
1125 1032 13 67 15 256 2 300 -3 11 -8 34 -12 50 -4 17 -24 63 -43 104 -95
197 -310 312 -557 298 -122 -7 -148 -12 -250 -44 -88 -28 -188 -72 -247 -109
-37 -24 -58 -24 -58 -2 0 23 -92 204 -135 263 -170 238 -418 347 -648 283z"/>
</g>
</svg>
