<?xml version="1.0" encoding="UTF-8"?>
<svg width="996px" height="180px" viewBox="0 0 996 180" version="1.1" xmlns="http://www.w3.org/2000/svg" xmlns:xlink="http://www.w3.org/1999/xlink">
    <title>logo</title>
    <g id="Page-1" stroke="none" stroke-width="1" fill="none" fill-rule="evenodd">
        <g id="logo" fill-rule="nonzero">
            <g id="Saleem.dev" transform="translate(257.403125, 45.703187)">
                <path d="M27.5672151,99 C38.7431131,99 47.0939925,96.6785489 52.6198531,92.0356467 C58.1457138,87.3927445 60.9086442,80.3659306 60.9086442,70.955205 C60.9086442,64.0429022 59.149475,58.3173502 55.6311368,53.7785489 C52.1127985,49.2397476 46.62833,45.5962145 39.1777314,42.8479495 L39.1777314,42.8479495 L31.2925144,39.8498423 C25.8287421,37.8094637 22.2379674,35.9460568 20.5201905,34.2596215 C18.8024136,32.5731861 17.9435251,30.4391167 17.9435251,27.8574132 C17.9435251,24.526183 19.1232033,21.9652997 21.4825595,20.1747634 C23.8419158,18.3842271 27.2360774,17.488959 31.6650444,17.488959 C35.638697,17.488959 39.6537418,18.2176656 43.7101789,19.6750789 C47.766616,21.1324921 51.7609647,23.2561514 55.6932251,26.0460568 L55.6932251,26.0460568 L55.6932251,8.05741325 C51.5126114,6.14195584 47.2906055,4.69495268 43.0272073,3.71640379 C38.7638092,2.73785489 34.5004111,2.24858044 30.237013,2.24858044 C20.8409802,2.24858044 13.4524698,4.6637224 8.0714819,9.4940063 C2.69049397,14.3242902 1.1379786e-14,20.9659306 1.1379786e-14,29.4189274 C1.1379786e-14,35.9981073 1.63499249,41.2343849 4.90497746,45.1277603 C8.17496244,49.0211356 14.4251869,52.7375394 23.6556508,56.2769716 L23.6556508,56.2769716 L32.6584575,59.7123028 C35.8042659,60.9198738 38.2050143,62.5750789 39.8607029,64.677918 C41.5163915,66.7807571 42.3442358,69.2271293 42.3442358,72.0170347 C42.3442358,75.7230284 41.1024694,78.6066246 38.6189365,80.6678233 C36.1354036,82.7290221 32.6377614,83.7596215 28.12601,83.7596215 C23.6556508,83.7596215 19.1335513,82.9059937 14.5597116,81.1987382 C9.9858718,79.4914826 5.25681129,76.888959 0.372529934,73.3911672 L0.372529934,73.3911672 L0.372529934,92.4416404 C4.67732028,94.6069401 9.13733143,96.2413249 13.7525634,97.344795 C18.3677953,98.448265 22.9726792,99 27.5672151,99 Z M97.7700672,99 C101.909289,99 105.696676,98.1671924 109.13223,96.5015773 C112.567784,94.8359621 115.382455,92.4624606 117.576242,89.3810726 L117.576242,89.3810726 L117.576242,97.1886435 L135.643944,97.1886435 L135.643944,57.2763407 C135.643944,45.3671924 133.357024,37.1015773 128.783184,32.4794953 C124.209344,27.8574132 116.272387,25.5463722 104.972313,25.5463722 C100.336385,25.5463722 95.9488097,25.9419558 91.8095883,26.733123 C87.6703668,27.5242902 83.5932336,28.7526814 79.5781888,30.4182965 L79.5781888,30.4182965 L79.5781888,46.0334385 C84.0071558,43.6182965 88.2602058,41.8589905 92.337339,40.7555205 C96.4144722,39.6520505 100.62613,39.1003155 104.972313,39.1003155 C109.111534,39.1003155 112.246994,39.8602524 114.378693,41.3801262 C116.510392,42.9 117.576242,45.1381703 117.576242,48.0946372 L117.576242,48.0946372 L117.576242,51.155205 L104.972313,51.155205 C93.9619834,51.155205 85.8284132,53.1018927 80.5716019,56.9952681 C75.3147906,60.8886435 72.686385,66.9160883 72.686385,75.0776025 C72.686385,82.614511 74.8905204,88.4858044 79.2987913,92.6914826 C83.7070622,96.8971609 89.8641542,99 97.7700672,99 Z M102.426691,86.3205047 C99.2394908,86.3205047 96.7145657,85.3835962 94.851916,83.5097792 C92.9892664,81.6359621 92.0579415,79.1167192 92.0579415,75.9520505 C92.0579415,71.7047319 93.4031885,68.7066246 96.0936825,66.9577287 C98.7841765,65.2088328 103.523585,64.3343849 110.311908,64.3343849 L110.311908,64.3343849 L117.576242,64.3343849 L117.576242,65.5835962 C117.576242,72.1211356 116.251691,77.2116719 113.602589,80.855205 C110.953488,84.4987382 107.228188,86.3205047 102.426691,86.3205047 Z M209.634184,97.1886435 L209.634184,83.1350158 L195.105516,83.1350158 C191.049079,83.1350158 188.17232,81.9899054 186.475239,79.6996845 C184.778159,77.4094637 183.929618,73.5160883 183.929618,68.0195584 L183.929618,68.0195584 L183.929618,0 L147.297508,0 L147.297508,14.0536278 L165.73774,14.0536278 L165.73774,68.0195584 C165.73774,78.4712934 167.621085,85.9457413 171.387777,90.4429022 C175.154469,94.9400631 181.363301,97.1886435 190.014274,97.1886435 L190.014274,97.1886435 L209.634184,97.1886435 Z M258.168211,99 C263.052493,99 267.688421,98.562776 272.075995,97.6883281 C276.46357,96.8138801 280.76836,95.5022082 284.990366,93.7533123 L284.990366,93.7533123 L284.990366,76.9514196 C280.561399,79.5747634 276.318697,81.4902208 272.26226,82.6977918 C268.205823,83.9053628 264.087298,84.5091483 259.906684,84.5091483 C253.573675,84.5091483 248.813571,83.155836 245.62637,80.4492114 C242.43917,77.7425868 240.824873,73.6410095 240.783481,68.1444795 L240.783481,68.1444795 L287.908518,68.1444795 L287.908518,60.7116719 C287.908518,49.5520505 285.062803,40.9012618 279.371373,34.759306 C273.679944,28.6173502 265.680898,25.5463722 255.374237,25.5463722 C245.15036,25.5463722 237.078878,28.8567823 231.159791,35.4776025 C225.240704,42.0984227 222.281161,51.1135647 222.281161,62.5230284 C222.281161,74.3072555 225.354533,83.3328076 231.501277,89.5996845 C237.648021,95.8665615 246.536999,99 258.168211,99 Z M240.969746,54.4656151 C241.42506,49.7602524 242.894484,46.1271293 245.378017,43.5662461 C247.86155,41.0053628 251.193623,39.7249211 255.374237,39.7249211 C260.010165,39.7249211 263.518155,40.9637224 265.898207,43.4413249 C268.27826,45.9189274 269.509678,49.5728707 269.592462,54.4031546 L269.592462,54.4031546 L240.969746,54.4656151 Z M333.027687,99 C337.911969,99 342.547897,98.562776 346.935472,97.6883281 C351.323046,96.8138801 355.627837,95.5022082 359.849843,93.7533123 L359.849843,93.7533123 L359.849843,76.9514196 C355.420876,79.5747634 351.178174,81.4902208 347.121737,82.6977918 C343.0653,83.9053628 338.946774,84.5091483 334.76616,84.5091483 C328.433152,84.5091483 323.673047,83.155836 320.485846,80.4492114 C317.298646,77.7425868 315.684349,73.6410095 315.642957,68.1444795 L315.642957,68.1444795 L362.767994,68.1444795 L362.767994,60.7116719 C362.767994,49.5520505 359.922279,40.9012618 354.230849,34.759306 C348.53942,28.6173502 340.540374,25.5463722 330.233713,25.5463722 C320.009836,25.5463722 311.938354,28.8567823 306.019267,35.4776025 C300.100181,42.0984227 297.140637,51.1135647 297.140637,62.5230284 C297.140637,74.3072555 300.214009,83.3328076 306.360753,89.5996845 C312.507497,95.8665615 321.396475,99 333.027687,99 Z M315.829222,54.4656151 C316.284537,49.7602524 317.75396,46.1271293 320.237493,43.5662461 C322.721026,41.0053628 326.053099,39.7249211 330.233713,39.7249211 C334.869641,39.7249211 338.377631,40.9637224 340.757684,43.4413249 C343.137736,45.9189274 344.369154,49.5728707 344.451939,54.4031546 L344.451939,54.4031546 L315.829222,54.4656151 Z M386.280428,97.1886435 L386.280428,52.2794953 C386.280428,47.0744479 386.673654,43.5974763 387.460106,41.8485804 C388.246558,40.0996845 389.674589,39.2252366 391.7442,39.2252366 C393.813811,39.2252366 395.262538,40.1205047 396.090382,41.911041 C396.918227,43.7015773 397.332149,47.1577287 397.332149,52.2794953 L397.332149,52.2794953 L397.332149,97.1886435 L412.047081,97.1886435 L412.047081,52.2794953 C412.047081,47.1577287 412.461003,43.7015773 413.288848,41.911041 C414.116692,40.1205047 415.56542,39.2252366 417.63503,39.2252366 C419.704641,39.2252366 421.132672,40.0996845 421.919125,41.8485804 C422.705577,43.5974763 423.098803,47.0744479 423.098803,52.2794953 L423.098803,52.2794953 L423.098803,97.1886435 L438,97.1886435 L438,57.7760252 C438,44.6176656 436.851366,35.9564669 434.554098,31.792429 C432.25683,27.6283912 428.107261,25.5463722 422.105389,25.5463722 C419.042366,25.5463722 416.455352,26.2542587 414.344349,27.6700315 C412.233346,29.0858044 410.494873,31.2719243 409.12893,34.2283912 C408.632224,31.8132492 407.224888,29.7624606 404.906924,28.0760252 C402.58896,26.3895899 400.022643,25.5463722 397.207972,25.5463722 C394.393302,25.5463722 391.84768,26.3479495 389.571109,27.9511041 C387.294537,29.5542587 385.638848,31.7299685 384.604043,34.4782334 L384.604043,34.4782334 L384.604043,27.2328076 L371.37923,27.2328076 L371.37923,97.1886435 L386.280428,97.1886435 Z" id="Saleem" fill="#000000"></path>
                <path d="M489.730234,97.1886435 L489.730234,74.2656151 L469,74.2656151 L469,97.1886435 L489.730234,97.1886435 Z M546.859356,99 C551.051055,99 554.692853,97.9798107 557.78475,95.9394322 C560.876647,93.8990536 563.397891,90.859306 565.348484,86.8201893 L565.348484,86.8201893 L565.348484,97.1886435 L583.526347,97.1886435 L583.526347,0 L565.348484,0 L565.348484,37.1640379 C563.107377,33.2914826 560.503129,30.3870662 557.535738,28.4507886 C554.568347,26.514511 551.217063,25.5463722 547.481886,25.5463722 C539.222994,25.5463722 532.862817,28.711041 528.401355,35.0403785 C523.939893,41.3697161 521.709162,50.4473186 521.709162,62.2731861 C521.709162,73.9324921 523.908767,82.9684543 528.307975,89.3810726 C532.707184,95.7936909 538.890978,99 546.859356,99 Z M552.586628,84.0094637 C548.643941,84.0094637 545.552044,82.0940063 543.310938,78.2630915 C541.069831,74.4321767 539.949278,69.1438486 539.949278,62.3981073 C539.949278,55.6523659 541.069831,50.3640379 543.310938,46.533123 C545.552044,42.7022082 548.643941,40.7867508 552.586628,40.7867508 C556.529315,40.7867508 559.641963,42.7022082 561.924571,46.533123 C564.20718,50.3640379 565.348484,55.6523659 565.348484,62.3981073 C565.348484,69.1438486 564.20718,74.4321767 561.924571,78.2630915 C559.641963,82.0940063 556.529315,84.0094637 552.586628,84.0094637 Z M632.873849,99 C637.771082,99 642.419303,98.562776 646.818511,97.6883281 C651.21772,96.8138801 655.533925,95.5022082 659.767126,93.7533123 L659.767126,93.7533123 L659.767126,76.9514196 C655.326415,79.5747634 651.072463,81.4902208 647.00527,82.6977918 C642.938077,83.9053628 638.808631,84.5091483 634.616932,84.5091483 C628.267131,84.5091483 623.494404,83.155836 620.298752,80.4492114 C617.103101,77.7425868 615.484524,73.6410095 615.443022,68.1444795 L615.443022,68.1444795 L662.693015,68.1444795 L662.693015,60.7116719 C662.693015,49.5520505 659.839755,40.9012618 654.133234,34.759306 C648.426713,28.6173502 640.406457,25.5463722 630.072466,25.5463722 C619.82148,25.5463722 611.728596,28.8567823 605.793814,35.4776025 C599.859032,42.0984227 596.891641,51.1135647 596.891641,62.5230284 C596.891641,74.3072555 599.973163,83.3328076 606.136205,89.5996845 C612.299248,95.8665615 621.211796,99 632.873849,99 Z M615.629781,54.4656151 C616.086302,49.7602524 617.559622,46.1271293 620.049741,43.5662461 C622.539859,41.0053628 625.880767,39.7249211 630.072466,39.7249211 C634.720687,39.7249211 638.237979,40.9637224 640.624342,43.4413249 C643.010706,45.9189274 644.245389,49.5728707 644.328393,54.4031546 L644.328393,54.4031546 L615.629781,54.4656151 Z M715.837948,97.1886435 L738,27.2328076 L719.510872,27.2328076 L704.570163,81.8233438 L689.691707,27.2328076 L671.202579,27.2328076 L693.364631,97.1886435 L715.837948,97.1886435 Z" id=".dev" fill="#F0BC5E"></path>
            </g>
            <g id="coffee-cup">
                <path d="M172.5,55.0000624 C172.061773,55.0000624 171.629219,55.0105381 171.201904,55.031926 C154.404785,55.7102277 141,69.5425195 141,86.5000624 C141,101.213622 151.09189,113.576697 164.737176,117.033242 C167.215954,117.66353 169.817821,118.000062 172.5,118.000062 C189.895535,118.000062 204,103.895402 204,86.4996259 C204,69.1038494 189.895099,55.0000624 172.5,55.0000624 Z M172.5,103.308763 C171.565057,103.308763 170.646263,103.234123 169.753658,103.084408 C161.777394,101.775382 155.691969,94.8513795 155.691969,86.5009354 C155.691969,77.6533319 162.525087,70.403273 171.201467,69.7411213 C171.628783,69.7092577 172.061336,69.6931077 172.499564,69.6931077 C181.784835,69.6931077 189.307158,77.2155348 189.307158,86.5009354 C189.307595,95.7863359 181.785272,103.308763 172.5,103.308763 Z" id="Shape" fill="#C1C8D2"></path>
                <path d="M155.593751,86.4675307 C155.593751,94.8177975 161.638061,101.742089 169.561436,103.050651 C168.473625,107.954922 166.785762,112.635279 164.578489,117.000062 C151.024858,113.54359 141,101.180778 141,86.4675307 C141,69.5103478 154.314738,55.6783497 171,55.0000624 L171,69.7080725 C162.381189,70.3706466 155.593751,77.6205515 155.593751,86.4675307 Z" id="Path" fill="#E4EAF8"></path>
                <path d="M163,50.3339156 L163,89.3145316 C163,122.411239 136.506562,149.764477 103.433265,149.998538 C96.4223278,150.047975 89.6863892,148.893418 83.419129,146.728242 C63.0784045,139.707715 47.6933407,122.052054 43.9045666,100.402038 C43.3104119,97.0123053 43,93.5263229 43,89.9650908 L43,50.3343531 C43,47.9408026 44.9389815,46.0000624 47.3313392,46.0000624 L158.668224,46.0000624 C161.060581,46.0000624 163,47.9403651 163,50.3339156 Z" id="Path" fill="#FFFFFF"></path>
                <g id="Group" transform="translate(42.149600, 77.022930)" fill="#E4EAF8">
                    <path d="M43.14464,65.6797711 C42.44988,67.0091626 41.62048,68.2849036 40.678,69.496 C20.207,62.4391867 4.7234,44.6922711 0.91036,22.9303554 C2.4024,23.4738976 3.82404,24.1898253 5.13788,25.0671445 C8.36924,27.2254819 10.86272,30.2936807 12.46784,33.9537952 C14.43376,33.6468433 16.40496,33.4854518 18.35416,33.4854518 C32.03904,33.4854518 43.1068,41.075253 45.26632,51.9373012 C46.18196,56.5187108 45.44408,61.2716265 43.14464,65.6797711 Z" id="Path"></path>
                    <path d="M120.76812,4.51028104e-16 L120.76812,12.4394638 C120.76812,45.7692409 93.73188,72.7849578 60.38384,72.7849578 C27.0358,72.7849578 4.99600361e-16,45.7692409 4.99600361e-16,12.4394638 L4.99600361e-16,4.51028104e-16 C4.99600361e-16,33.3297771 27.03624,60.3507711 60.38384,60.3507711 C93.73144,60.3507711 120.76812,33.3297771 120.76812,4.51028104e-16 Z" id="Path"></path>
                </g>
                <rect id="Rectangle" fill="#C1C8D2" x="55" y="161.000062" width="96" height="16"></rect>
                <path d="M78.4131318,139.037824 C75.5769036,144.376836 69.1680213,148.848204 61.1170196,150.419646 C49.089319,152.769243 37.9444499,147.773917 36.2223129,139.254411 C36.2060456,139.180486 36.1954938,139.111317 36.1845024,139.037392 C34.6399868,130.592243 42.959619,121.908893 54.8796036,119.580478 C66.9073043,117.230881 78.0521733,122.226207 79.7743104,130.745713 C80.3449853,133.560907 79.8125605,136.402471 78.4131318,139.037824 Z" id="Path" fill="#FFC843"></path>
                <g id="Group" transform="translate(36.282970, 128.114826)" fill="#FFA816">
                    <path d="M42.0249904,11.6286546 C39.2146538,17.0177455 32.8642775,21.5310546 24.8867726,23.1172364 C12.9688716,25.4888728 1.92574288,20.4466909 0.219327039,11.8472728 C0.203208227,11.7726546 0.192752781,11.7028364 0.181861692,11.6282182 L42.0249904,11.6282182 L42.0249904,11.6286546 L42.0249904,11.6286546 Z" id="Path"></path>
                    <path d="M24.88503,23.1163637 C12.9710498,25.4884364 1.92835674,20.4445091 0.222376544,11.8481455 C-0.00633632755,10.6957091 -0.0573066245,9.53498181 0.0633666435,8.38909091 C3.57247555,14.9493819 13.238535,18.4542546 23.5523963,16.4007273 C33.8658221,14.3472 41.4590894,7.40596363 42.196634,7.21644966e-16 C42.7455449,1.01236363 43.1415449,2.10458181 43.3702577,3.25701818 C45.0762379,11.8529455 36.7990102,20.7438546 24.88503,23.1163637 Z" id="Path"></path>
                </g>
                <path d="M44.1947,136.387073 C43.5322631,137.383012 42.8274965,138.325282 42.0847642,139.208605 C35.2422012,147.339316 25.328776,150.397516 18.758519,145.965942 C16.3976602,144.377455 14.7577143,142.01914 13.8443543,139.208605 C11.9482486,133.34471 13.2355931,125.510493 17.8076297,118.612828 C24.5698974,108.409299 35.9578774,104.123332 43.2438106,109.03396 C50.5297439,113.939308 50.9569677,126.188822 44.1947,136.387073 Z" id="Path" fill="#FFC843"></path>
                <g id="Group" transform="translate(13.194667, 107.417116)" fill="#FFA816">
                    <path d="M28.7617777,31.7269462 C21.7928889,39.8753656 11.6964444,42.9402258 5.00488889,38.499 C2.60044444,36.9070537 0.930222223,34.5436021 8.32667268e-17,31.7269462 L28.7617777,31.7269462 Z" id="Path"></path>
                    <path d="M30.9106666,28.9014731 C24.0244444,39.1214946 12.4257777,43.4198817 5.004,38.4994408 C4.00888889,37.8399139 3.13644444,37.0468064 2.39777777,36.1421613 C9.65422222,38.3178064 19.1511111,33.9047957 25.1124444,25.0576129 C31.0737777,16.2104301 31.552,5.81847312 26.7502222,1.60982339e-15 C27.8755555,0.330645162 28.9475555,0.827053767 29.9426666,1.48702151 C37.3648889,6.40702151 37.7968889,18.6814516 30.9106666,28.9014731 Z" id="Path"></path>
                </g>
                <polygon id="Path" fill="#FFFFFF" points="4 147.000062 4 154.628027 54.7778733 164.000062 151.221689 164.000062 202 154.628027 202 147.000062"></polygon>
                <g id="Group" transform="translate(84.000000, 0.000000)" fill="#FFC843">
                    <path d="M14.8877326,37.5322306 C14.0005127,38.0846197 13.73379,39.2439858 14.2920351,40.1218989 C14.6526421,40.6893122 15.2693435,41.0000624 15.899963,41.0000624 C16.2453866,41.0000624 16.5951122,40.9066621 16.9089037,40.7113477 C20.7229878,38.3367756 23,34.2617164 23,29.8110526 C23,26.2350467 21.5277109,22.9039349 18.9720822,20.5000624 C21.527964,18.0961964 23,14.7650847 23,11.1893291 C23,6.73841492 20.7229878,2.66360612 16.9089037,0.288783615 C16.0219368,-0.263605509 14.8495209,-8.32667268e-16 14.291782,0.87823239 C13.733537,1.75614548 14.0002597,2.91551159 14.8874796,3.46790071 C17.5906408,5.1508596 19.2043891,8.03725553 19.2043891,11.1890787 C19.2043891,14.3409019 17.5906408,17.2272978 14.8874796,18.9102567 C13.7272105,19.6304159 13.7272105,21.3667106 14.8874796,22.0893738 C17.5906408,23.7723327 19.2043891,26.6587286 19.2043891,29.8105518 C19.2046422,32.9626254 17.5908939,35.8492717 14.8877326,37.5322306 C14.0005127,38.0846197 17.5908939,35.8492717 14.8877326,37.5322306 Z" id="Path"></path>
                    <path d="M28.8877576,37.590821 C28.0005127,38.1338773 27.7337825,39.2736555 28.2920433,40.1367358 C28.6526605,40.6945625 29.2693792,41.0000624 29.9000165,41.0000624 C30.2454498,41.0000624 30.5951852,40.9082401 30.9089855,40.7162256 C34.7229237,38.3817729 37,34.3755635 37,30.0000955 C37,25.6246275 34.7229237,21.6184181 30.9089855,19.2839653 C30.0219936,18.7409091 28.8497979,19.0000463 28.2917902,19.8634551 C27.7335295,20.7262894 28.0002597,21.8663137 28.8875045,22.40937 C31.5904887,24.0638946 33.2042824,26.9017698 33.2042824,30.0003417 C33.2045355,33.0984211 31.5907418,35.9362964 28.8877576,37.590821 Z" id="Path"></path>
                    <path d="M0.887732646,37.5908499 C0.000512714235,38.1339016 -0.266209992,39.2736701 0.292035065,40.1367432 C0.652642139,40.6945651 1.2693435,41.0000624 1.89996303,41.0000624 C2.24538665,41.0000624 2.59511225,40.9082409 2.90890366,40.716228 C6.72298775,38.3817951 9,34.3756196 9,30.0001887 C9,25.6245116 6.72298775,21.6185823 2.90890366,19.2839032 C2.02193679,18.7408515 0.849520949,19.000315 0.291782007,19.8633881 C-0.266463049,20.7264611 0.000259656639,21.8662296 0.887479588,22.4092813 C3.59064083,24.0637919 5.20438912,26.901397 5.20438912,29.9999425 C5.20464218,33.0984881 3.59089389,35.9363393 0.887732646,37.5908499 Z" id="Path"></path>
                </g>
                <path d="M42,59.5000624 L42,59.5000624 C42,57.5750624 43.4851724,56.0000624 45.3003832,56.0000624 L161.699617,56.0000624 C163.514828,56.0000624 165,57.5750624 165,59.5000624 L165,59.5000624 C165,61.4250624 163.514828,63.0000624 161.699617,63.0000624 L45.3003832,63.0000624 C43.4851724,63.0000624 42,61.4250624 42,59.5000624 Z" id="Path" fill="#C1C8D2"></path>
                <path d="M201.590439,143.551406 L169.840668,143.551406 C168.024329,143.551406 166.552581,145.018123 166.552581,146.827278 C166.552581,148.636432 168.024329,150.103149 169.840668,150.103149 L198.302352,150.103149 L198.302352,151.951177 L150.42517,161.009617 L54.4533558,161.009617 L6.57617455,151.951177 L6.57617455,150.103149 L19.6496096,150.103149 C19.6548705,150.103149 19.6601314,150.104023 19.664954,150.104023 C19.6688997,150.104023 19.6732838,150.103149 19.6772295,150.103149 L31.5239887,150.103149 C31.5279344,150.103149 31.5314417,150.104023 31.5353874,150.104023 C31.5415252,150.104023 31.5481014,150.103149 31.5542391,150.103149 L70.9748983,150.103149 C70.9770903,150.103149 70.9792824,150.103586 70.9819129,150.103586 C70.9841049,150.103586 70.9858586,150.103149 70.9880506,150.103149 L82.7352904,150.103149 C82.7387977,150.103149 82.742305,150.104023 82.7458123,150.104023 C82.7493196,150.104023 82.7532653,150.103149 82.7567726,150.103149 L122.121753,150.103149 C122.125699,150.103149 122.129206,150.104023 122.132714,150.104023 C122.136221,150.104023 122.139728,150.103149 122.142797,150.103149 L157.630466,150.103149 C159.446805,150.103149 160.918553,148.636432 160.918553,146.827278 C160.918553,145.018123 159.446805,143.551406 157.630466,143.551406 L136.421864,143.551406 C140.348717,141.065238 144.0134,138.153644 147.308064,134.873405 C152.063515,130.133437 155.96757,124.772364 158.9514,118.976256 C163.109296,120.663548 167.511825,121.520079 172.076129,121.520079 C191.33336,121.520079 207,105.90946 207,86.7215894 C207,67.5359025 191.33336,51.9274672 172.076129,51.9274672 C169.98929,51.9274672 167.92174,52.1157206 165.890141,52.4786871 L165.890141,50.6044519 C165.890141,46.4113365 162.466146,43.0000624 158.257833,43.0000624 L142.706933,43.0000624 C140.890594,43.0000624 139.418846,44.4667792 139.418846,46.2759338 C139.418846,48.0850884 140.890594,49.5518052 142.706933,49.5518052 L158.257833,49.5518052 C158.840043,49.5518052 159.313966,50.0239675 159.313966,50.6044519 L159.313966,90.1682429 C159.313966,105.304516 153.398478,119.536211 142.65827,130.240886 C136.707709,136.165408 129.419554,140.75687 121.556202,143.551843 L83.3262693,143.551843 C82.2657516,143.175773 81.2104948,142.771312 80.1683903,142.328851 C82.5809695,138.549806 83.5003187,134.345334 82.7063553,130.338288 C82.7054785,130.333047 82.70504,130.328242 82.7041632,130.323001 C82.702848,130.316886 82.7006559,130.310771 82.6997791,130.304656 C81.6515369,125.091652 77.9544115,120.802445 72.2866259,118.2263 C66.977461,115.813074 60.4885303,115.188475 54.0145057,116.469122 C53.4257189,116.585743 52.842193,116.718962 52.2634896,116.865284 C47.8745507,108.69133 45.5592989,99.5171432 45.5592989,90.1686797 L45.5592989,50.6048887 C45.5592989,50.0244043 46.0332219,49.552242 46.6158709,49.552242 L130.492785,49.552242 C132.309125,49.552242 133.780873,48.0855252 133.780873,46.2763706 C133.780873,44.467216 132.309125,43.0000624 130.492785,43.0000624 L46.6158709,43.0000624 C42.4071192,43.0000624 38.9831243,46.4117733 38.9831243,50.6048887 L38.9831243,90.1686797 C38.9831243,95.1095674 39.5631429,100.008087 40.6933681,104.765962 C35.3416773,103.176073 28.9645416,104.425272 23.1459424,108.391697 C21.647013,109.413332 21.2629644,111.451797 22.2884092,112.945158 C23.3142924,114.438082 25.360798,114.820267 26.8592889,113.799069 C30.6725933,111.199774 34.6744148,110.179449 37.9835458,110.839865 L26.0070167,128.691617 C24.9977931,130.195897 25.4037623,132.230431 26.9132136,133.235469 C27.4743805,133.609355 28.1096389,133.788436 28.7374444,133.788436 C29.798839,133.788436 30.840505,133.2774 31.4740098,132.332639 L43.4540462,114.474335 C44.6965048,116.31188 45.3773581,118.71637 45.4093621,121.518769 C45.4093621,121.520079 45.4093621,121.520953 45.4093621,121.522263 C45.4093621,121.528378 45.4098005,121.534493 45.4098005,121.540608 C45.4540801,125.868252 43.936299,130.549254 41.1370407,134.721404 C39.5412223,137.10056 37.6542987,139.140773 35.5174803,140.793559 C34.0360874,141.949287 32.4797261,142.873956 30.885223,143.551406 L20.4979361,143.551406 C20.3791265,143.480647 20.2607554,143.409452 20.1428227,143.329957 C14.6683765,139.687188 14.3220313,130.266219 19.3541201,121.882172 C20.2861833,120.329409 19.7785026,118.317587 18.2199492,117.388987 C16.6622727,116.46126 14.6425103,116.966181 13.7104471,118.519381 C10.5025892,123.863419 8.93570598,129.817643 9.29871082,135.285728 C9.50476428,138.388196 10.3197715,141.184043 11.6613111,143.55097 L3.28808728,143.55097 C1.47174786,143.55097 0,145.017686 0,146.826841 L0,154.662725 C0,156.236454 1.12321061,157.587423 2.6747494,157.880941 L51.0271688,167.029358 L51.0271688,176.724191 C51.0271688,178.533345 52.4989167,180.000062 54.3152561,180.000062 L150.558886,180.000062 C152.375225,180.000062 153.846973,178.533345 153.846973,176.724191 L153.846973,167.030232 L202.203777,157.880941 C203.755315,157.587423 204.878526,156.236017 204.878526,154.662725 L204.878526,146.826841 C204.878526,145.018123 203.40634,143.551406 201.590439,143.551406 Z M165.890141,90.1678061 L165.890141,74.6685665 C167.795478,73.694104 169.902484,73.1769531 172.076129,73.1769531 C179.57253,73.1769531 185.671274,79.2530394 185.671274,86.7215894 C185.671274,94.1901395 179.57253,100.266225 172.076129,100.266225 C169.687224,100.266225 167.387755,99.648178 165.345195,98.4828414 C165.704254,95.7481439 165.890141,92.9723889 165.890141,90.1678061 Z M164.096599,105.18178 C166.596422,106.257139 169.297038,106.818405 172.076129,106.818405 C183.198632,106.818405 192.247448,97.8032072 192.247448,86.7220262 C192.247448,75.6408452 183.198632,66.625647 172.076129,66.625647 C169.954217,66.625647 167.872638,66.9562917 165.890141,67.5926843 L165.890141,59.482937 C165.890141,59.4715807 165.891894,59.4606611 165.891894,59.4493047 C165.891894,59.4379484 165.890141,59.4270288 165.890141,59.4156724 L165.890141,59.1584073 C167.908588,58.7098314 169.980083,58.4796468 172.076129,58.4796468 C187.706819,58.4796468 200.423825,71.1489703 200.423825,86.7220262 C200.423825,102.297266 187.706819,114.968773 172.076129,114.968773 C168.450903,114.968773 164.956324,114.295691 161.649385,112.986652 C162.634496,110.446323 163.449942,107.839603 164.096599,105.18178 Z M46.605349,138.361552 C49.649241,133.824252 51.4861858,128.736169 51.8965391,123.805764 C52.9995828,123.435372 54.1341921,123.124819 55.2964213,122.894198 C63.6626306,121.239664 71.7294047,123.747672 74.9460309,128.519088 L53.81459,132.703904 C52.0333235,133.056825 50.8763552,134.780807 51.2301534,136.555455 C51.5414257,138.114333 52.9149693,139.193187 54.4520405,139.193187 C54.6642318,139.193187 54.8803687,139.172658 55.0965056,139.129417 L76.2410989,134.941543 C75.8193469,137.096629 74.6137149,139.256957 72.6825116,141.241699 C72.6772507,141.24694 72.6724281,141.252618 72.6676056,141.25786 C71.8622434,142.081195 70.9516625,142.847749 69.9599753,143.550533 L42.3132991,143.550533 C43.889389,142.002138 45.3269407,140.267673 46.605349,138.361552 Z M147.270799,173.449193 L57.602905,173.449193 L57.602905,167.56136 L147.270799,167.56136 L147.270799,173.449193 Z" id="Shape" fill="#434C54"></path>
            </g>
        </g>
    </g>
</svg>